<svg width="20" height="24" viewBox="0 0 20 24" fill="none" xmlns="http://www.w3.org/2000/svg">
<path d="M20 24H0V0H20V24Z" stroke="#E5E7EB"/>
<g clip-path="url(#clip0_331_4507)">
<path d="M11.9062 7.59096L5.81563 5.30658C5.29375 5.11283 4.71562 5.14096 4.21875 5.39096L2.78437 6.10658C2.4375 6.28158 2.4125 6.76595 2.7375 6.97533L7.32812 9.92845L4.25 11.5003L2.43125 10.691C2.15938 10.5691 1.84375 10.5753 1.57812 10.7097L0.571875 11.2128C0.28125 11.3597 0.203125 11.7378 0.415625 11.9847L2.7 14.6503C2.89062 14.8722 3.16875 15.0003 3.45937 15.0003H7.7625C7.91875 15.0003 8.07188 14.9628 8.20938 14.8941L16.7375 10.6316C18.1906 9.90345 19.3156 8.65346 19.8875 7.13158C20.1844 6.34408 19.6 5.50033 18.7563 5.50033H16.9625C16.3312 5.50033 15.7063 5.65033 15.1438 5.93783L11.9062 7.59096ZM0 19.0003C0 19.5535 0.446875 20.0003 1 20.0003H19C19.5531 20.0003 20 19.5535 20 19.0003C20 18.4472 19.5531 18.0003 19 18.0003H1C0.446875 18.0003 0 18.4472 0 19.0003Z" fill="#0056F1"/>
</g>
<defs>
<clipPath id="clip0_331_4507">
<path d="M0 4H20V20H0V4Z" fill="white"/>
</clipPath>
</defs>
</svg>
